<?xml version="1.0" encoding="UTF-8" standalone="no"?>
<!-- Created with Inkscape (http://www.inkscape.org/) -->

<svg
   width="512"
   height="512"
   viewBox="0 0 135.46667 135.46667"
   version="1.1"
   id="svg5"
   inkscape:version="1.1.2 (0a00cf5339, 2022-02-04, custom)"
   sodipodi:docname="favicon.svg"
   inkscape:export-filename="/run/media/matt/zdani/code/rust/shrubbery/static/favicon.png"
   inkscape:export-xdpi="96"
   inkscape:export-ydpi="96"
   xmlns:inkscape="http://www.inkscape.org/namespaces/inkscape"
   xmlns:sodipodi="http://sodipodi.sourceforge.net/DTD/sodipodi-0.dtd"
   xmlns="http://www.w3.org/2000/svg"
   xmlns:svg="http://www.w3.org/2000/svg">
  <sodipodi:namedview
     id="namedview7"
     pagecolor="#ffffff"
     bordercolor="#666666"
     borderopacity="1.0"
     inkscape:pageshadow="2"
     inkscape:pageopacity="0.0"
     inkscape:pagecheckerboard="0"
     inkscape:document-units="mm"
     showgrid="false"
     units="px"
     width="512px"
     inkscape:snap-midpoints="true"
     inkscape:snap-global="false"
     inkscape:object-paths="true"
     inkscape:zoom="0.94615212"
     inkscape:cx="24.837444"
     inkscape:cy="279.0249"
     inkscape:window-width="1920"
     inkscape:window-height="1059"
     inkscape:window-x="1920"
     inkscape:window-y="21"
     inkscape:window-maximized="1"
     inkscape:current-layer="layer1" />
  <defs
     id="defs2" />
  <g
     inkscape:label="Layer 1"
     inkscape:groupmode="layer"
     id="layer1">
    <path
       id="path11166"
       style="opacity:1;fill:#e0ab77;fill-opacity:1;stroke:none;stroke-width:49.1339;stroke-miterlimit:4;stroke-dasharray:none;stroke-opacity:1;paint-order:stroke fill markers;stop-color:#000000"
       d="M 256 0 A 255.99999 255.99999 0 0 0 0 256 L 85.541016 256 A 170.45833 170.45833 0 0 1 256 85.541016 A 170.45833 170.45833 0 0 1 382.33398 141.56445 L 345.45117 178.44727 L 478.76367 178.44727 L 478.76367 45.134766 L 442.87109 81.029297 A 255.99999 255.99999 0 0 0 442.86914 81.029297 A 255.99999 255.99999 0 0 0 256 0 z "
       transform="scale(0.26458333)" />
    <path
       id="path11860"
       style="opacity:1;fill:#7b7fbd;fill-opacity:1;stroke:none;stroke-width:49.1339;stroke-miterlimit:4;stroke-dasharray:none;stroke-opacity:1;paint-order:stroke fill markers;stop-color:#000000"
       d="M 426.45898 256 A 170.45833 170.45833 0 0 1 256 426.45898 A 170.45833 170.45833 0 0 1 127.45703 367.94727 L 165.5332 329.87109 L 32.220703 329.87109 L 32.220703 463.18164 L 66.873047 428.5293 A 255.99999 255.99999 0 0 0 256 512 A 255.99999 255.99999 0 0 0 512 256 L 426.45898 256 z "
       transform="scale(0.26458333)" />
    <path
       style="fill:#7b7fbd;fill-opacity:1;stroke:none;stroke-width:0.264583px;stroke-linecap:butt;stroke-linejoin:miter;stroke-opacity:1"
       d="M 56.397775,87.711603 V 47.755064 l 36.708673,19.97827 z"
       id="path8353"
       sodipodi:nodetypes="cccc" />
  </g>
</svg>
